<svg width="128" height="128" viewBox="0 0 128 128" fill="none" xmlns="http://www.w3.org/2000/svg">
<path d="M128 128V0H0V128H128Z" fill="white"/>
<path d="M82.0625 93H47.1875L40.875 107.812C40.1667 109.396 39.6042 110.333 39.1875 110.625C38.7708 110.875 37.7083 111 36 111H27.5625C26.0625 111 25.0625 110.896 24.5625 110.688C23.6458 110.271 23.1875 109.562 23.1875 108.562C23.1875 108.062 23.4792 107.104 24.0625 105.688L57.4375 27.125C57.6042 26.7083 57.75 26.3542 57.875 26.0625C58.25 25.0625 58.6667 24.4583 59.125 24.25C59.625 24 60.6875 23.875 62.3125 23.875H67.75C69.5 23.875 70.5833 24.0208 71 24.3125C71.4167 24.6042 71.9583 25.5625 72.625 27.1875L105.062 105.688C105.646 107.104 105.938 108.062 105.938 108.562C105.938 109.479 105.604 110.125 104.938 110.5C104.312 110.833 103.188 111 101.562 111H92.9375C91.1875 111 90.0833 110.854 89.625 110.562C89.2083 110.271 88.6875 109.312 88.0625 107.688L82.0625 93ZM76.875 79.5L64.875 48.8125L52.5 79.5H76.875Z" fill="#120A8F"/>
</svg>
