<svg width="130" height="130" viewBox="0 0 130 130" fill="none" xmlns="http://www.w3.org/2000/svg">
<path d="M129 129V1H1V129H129Z" fill="#120A8F"/>
<path d="M83.0625 94H48.1875L41.875 108.812C41.1667 110.396 40.6042 111.333 40.1875 111.625C39.7708 111.875 38.7083 112 37 112H28.5625C27.0625 112 26.0625 111.896 25.5625 111.688C24.6458 111.271 24.1875 110.562 24.1875 109.562C24.1875 109.062 24.4792 108.104 25.0625 106.688L58.4375 28.125C58.6042 27.7083 58.75 27.3542 58.875 27.0625C59.25 26.0625 59.6667 25.4583 60.125 25.25C60.625 25 61.6875 24.875 63.3125 24.875H68.75C70.5 24.875 71.5833 25.0208 72 25.3125C72.4167 25.6042 72.9583 26.5625 73.625 28.1875L106.062 106.688C106.646 108.104 106.938 109.062 106.938 109.562C106.938 110.479 106.604 111.125 105.938 111.5C105.312 111.833 104.188 112 102.562 112H93.9375C92.1875 112 91.0833 111.854 90.625 111.562C90.2083 111.271 89.6875 110.312 89.0625 108.688L83.0625 94ZM77.875 80.5L65.875 49.8125L53.5 80.5H77.875Z" fill="white"/>
<path d="M129.5 1V0.5H129H1H0.5V1V129V129.5H1H129H129.5V129V1Z" stroke="white"/>
</svg>
